<svg version="1.0" xmlns="http://www.w3.org/2000/svg"
 width="100%" height="100%" viewBox="0 0 64.000000 64.000000"
 preserveAspectRatio="xMidYMid meet">

<g transform="translate(0.000000,64.000000) scale(0.100000,-0.100000)"
fill="currentColor" stroke="none">
<path d="M145 537 c-30 -53 -31 -71 -5 -97 l20 -20 -20 0 c-17 0 -20 -7 -20
-39 0 -31 -7 -46 -31 -71 -26 -25 -30 -35 -24 -58 4 -15 10 -64 12 -110 l4
-82 239 0 239 0 4 82 c2 46 8 95 12 110 6 23 2 33 -24 58 -24 25 -31 40 -31
71 0 32 -3 39 -20 39 l-20 0 20 20 c11 11 20 27 20 37 0 21 -48 103 -60 103
-12 0 -60 -82 -60 -103 0 -10 9 -26 20 -37 l20 -20 -20 0 c-17 0 -20 -7 -20
-40 0 -22 -4 -40 -10 -40 -5 0 -10 18 -10 40 0 33 -3 40 -20 40 l-20 0 20 20
c11 11 20 27 20 37 0 21 -48 103 -60 103 -12 0 -60 -82 -60 -103 0 -10 9 -26
20 -37 l20 -20 -20 0 c-17 0 -20 -7 -20 -40 0 -22 -4 -40 -10 -40 -5 0 -10 18
-10 40 0 33 -3 40 -20 40 l-20 0 20 20 c11 11 20 27 20 37 0 21 -48 103 -60
103 -5 0 -21 -20 -35 -43z m49 -33 c11 -29 6 -44 -14 -44 -20 0 -25 15 -14 44
8 20 20 20 28 0z m140 0 c11 -29 6 -44 -14 -44 -11 0 -20 6 -20 14 0 21 11 46
20 46 4 0 11 -7 14 -16z m140 0 c11 -29 6 -44 -14 -44 -11 0 -20 6 -20 14 0
21 11 46 20 46 4 0 11 -7 14 -16z m-274 -144 c0 -13 -7 -20 -20 -20 -13 0 -20
7 -20 20 0 13 7 20 20 20 13 0 20 -7 20 -20z m140 0 c0 -13 -7 -20 -20 -20
-13 0 -20 7 -20 20 0 13 7 20 20 20 13 0 20 -7 20 -20z m140 0 c0 -13 -7 -20
-20 -20 -13 0 -20 7 -20 20 0 13 7 20 20 20 13 0 20 -7 20 -20z m54 -83 c8
-12 8 -22 0 -35 -16 -25 -51 -27 -66 -3 -16 27 -40 27 -56 1 -16 -26 -48 -26
-64 0 -7 11 -20 20 -28 20 -8 0 -21 -9 -28 -20 -7 -11 -21 -20 -32 -20 -11 0
-25 9 -32 20 -7 11 -20 20 -28 20 -8 0 -21 -9 -28 -20 -21 -34 -72 -20 -72 20
0 37 18 40 224 38 177 -3 200 -5 210 -21z m-300 -88 c19 -9 32 -9 56 1 24 10
36 10 60 0 24 -10 37 -10 57 -1 21 10 36 9 70 -1 41 -12 43 -14 43 -50 l0 -38
-200 0 -200 0 0 38 c0 34 3 39 33 49 45 14 53 15 81 2z"/>
</g>
</svg>
