<svg width="13px" height="18px" viewBox="0 0 13 18" version="1.1" xmlns="http://www.w3.org/2000/svg" xmlns:xlink="http://www.w3.org/1999/xlink">
    <title>Shape</title>
    <g id="Screens" stroke="none" stroke-width="1" fill="currentColor" fill-rule="evenodd">
        <g id="Automation-Copy-13" transform="translate(-471.000000, -1899.000000)" fill="currentColor" fill-rule="nonzero">
            <g id="Group-6-Copy" transform="translate(471.000000, 1899.000000)">
                <path d="M2.84615385,0.384615385 C4.205624,0.384615385 5.30769231,1.48668369 5.30769231,2.84615385 C5.30769231,3.98190448 4.53849964,4.93800054 3.49263579,5.22192054 L3.49135494,10.782092 C3.97712307,10.4943259 4.61655498,10.2739584 5.43208978,10.0749231 L5.92867595,9.96074392 L6.65592129,9.80716758 L6.65592129,9.80716758 L7.10793437,9.70190183 C8.75557727,9.29268148 9.43735594,8.80205922 9.58402296,7.68379783 C8.53786908,7.39884979 7.76923077,6.4430336 7.76923077,5.30769231 C7.76923077,3.94822215 8.87129908,2.84615385 10.2307692,2.84615385 C11.5902394,2.84615385 12.6923077,3.94822215 12.6923077,5.30769231 C12.6923077,6.46315308 11.8961858,7.43266963 10.8225531,7.69763079 C10.6487008,9.67019304 9.45919768,10.4473037 6.92677677,11.0075883 L6.2058856,11.1598461 L5.76937012,11.2584793 L5.56823024,11.3078235 L5.56823024,11.3078235 L5.19888884,11.4078204 C4.11234862,11.7244134 3.64305602,12.0909791 3.5064591,12.7823842 C4.54589687,13.0712205 5.30769231,14.0235699 5.30769231,15.1538462 C5.30769231,16.5133163 4.205624,17.6153846 2.84615385,17.6153846 C1.48668369,17.6153846 0.384615385,16.5133163 0.384615385,15.1538462 C0.384615385,13.9972233 1.18233952,13.0269188 2.25761026,12.7631103 L2.26099417,12.736434 L2.26099417,12.736434 L2.26060431,5.23762222 C1.18382067,4.97488177 0.384615385,4.00385001 0.384615385,2.84615385 C0.384615385,1.48668369 1.48668369,0.384615385 2.84615385,0.384615385 Z M2.84615385,13.9230769 C2.16641877,13.9230769 1.61538462,14.4741111 1.61538462,15.1538462 C1.61538462,15.8335812 2.16641877,16.3846154 2.84615385,16.3846154 C3.52588892,16.3846154 4.07692308,15.8335812 4.07692308,15.1538462 C4.07692308,14.4741111 3.52588892,13.9230769 2.84615385,13.9230769 Z M10.2307692,4.07692308 C9.55103415,4.07692308 9,4.62795723 9,5.30769231 C9,5.98742738 9.55103415,6.53846154 10.2307692,6.53846154 C10.9105043,6.53846154 11.4615385,5.98742738 11.4615385,5.30769231 C11.4615385,4.62795723 10.9105043,4.07692308 10.2307692,4.07692308 Z M2.84615385,1.61538462 C2.16641877,1.61538462 1.61538462,2.16641877 1.61538462,2.84615385 C1.61538462,3.52588892 2.16641877,4.07692308 2.84615385,4.07692308 C3.52588892,4.07692308 4.07692308,3.52588892 4.07692308,2.84615385 C4.07692308,2.16641877 3.52588892,1.61538462 2.84615385,1.61538462 Z" id="Shape"></path>
            </g>
        </g>
    </g>
</svg>