<svg version="1.0" xmlns="http://www.w3.org/2000/svg"
 width="100%" height="100%" viewBox="0 0 512.000000 512.000000"
 preserveAspectRatio="xMidYMid meet">

<g transform="translate(0.000000,512.000000) scale(0.100000,-0.100000)"
fill="currentColor" stroke="none">
<path d="M1210 5104 c-45 -20 -68 -41 -91 -86 -17 -33 -19 -61 -19 -243 l0
-205 -307 0 c-239 0 -322 -4 -372 -15 -202 -48 -373 -227 -410 -429 -15 -83
-15 -3598 0 -3682 37 -206 227 -396 433 -433 84 -15 4148 -15 4232 0 206 37
396 227 433 433 15 84 15 3599 0 3682 -37 202 -208 381 -410 429 -50 11 -133
15 -371 15 l-308 0 0 208 c0 196 -2 209 -23 247 -12 22 -37 50 -56 62 -89 60
-205 32 -258 -62 -21 -38 -23 -51 -23 -247 l0 -208 -1100 0 -1100 0 0 205 c0
182 -2 210 -19 243 -23 46 -46 67 -94 87 -45 19 -92 19 -137 -1z m-110 -1114
c3 -137 9 -222 17 -235 18 -31 65 -73 96 -84 64 -25 141 -9 190 37 50 47 52
56 57 282 l5 215 1095 0 1095 0 5 -215 c3 -137 9 -222 17 -235 18 -31 65 -73
96 -84 64 -25 141 -9 190 37 50 47 52 56 57 282 l5 215 295 0 c287 0 296 -1
337 -22 26 -15 52 -39 68 -66 l25 -44 0 -391 0 -392 -2190 0 -2190 0 0 392 0
391 25 44 c26 43 64 70 120 84 17 4 154 6 305 6 l275 -2 5 -215z m3650 -2277
l0 -1216 -24 -41 c-13 -23 -42 -51 -64 -64 l-40 -22 -2062 0 -2062 0 -40 22
c-22 13 -51 41 -64 64 l-24 41 0 1216 0 1217 2190 0 2190 0 0 -1217z"/>
<path d="M1030 2544 c-73 -32 -111 -88 -112 -164 0 -91 53 -159 142 -179 58
-14 382 -14 440 0 89 20 142 88 142 179 -1 78 -40 133 -114 165 -53 22 -446
21 -498 -1z"/>
<path d="M2310 2544 c-73 -32 -111 -88 -112 -164 0 -91 53 -159 142 -179 58
-14 382 -14 440 0 89 20 142 88 142 179 -1 78 -40 133 -114 165 -53 22 -446
21 -498 -1z"/>
<path d="M3590 2544 c-73 -32 -111 -88 -112 -164 0 -91 53 -159 142 -179 58
-14 382 -14 440 0 89 20 142 88 142 179 -1 78 -40 133 -114 165 -53 22 -446
21 -498 -1z"/>
<path d="M1025 1811 c-55 -25 -86 -62 -100 -118 -27 -104 29 -200 131 -223 21
-5 122 -10 224 -10 239 0 280 11 332 81 43 59 37 171 -13 226 -52 56 -84 63
-319 63 -188 0 -220 -3 -255 -19z"/>
<path d="M2305 1811 c-55 -25 -86 -62 -100 -118 -27 -104 29 -200 131 -223 21
-5 122 -10 224 -10 239 0 280 11 332 81 43 59 37 171 -13 226 -52 56 -84 63
-319 63 -188 0 -220 -3 -255 -19z"/>
<path d="M3585 1811 c-55 -25 -86 -62 -100 -118 -27 -104 29 -200 131 -223 21
-5 122 -10 224 -10 239 0 280 11 332 81 43 59 37 171 -13 226 -52 56 -84 63
-319 63 -188 0 -220 -3 -255 -19z"/>
<path d="M1051 1090 c-96 -23 -152 -121 -126 -223 14 -56 45 -93 100 -118 35
-16 67 -19 255 -19 188 0 220 3 255 19 55 25 86 62 100 118 27 104 -29 200
-131 223 -47 11 -406 11 -453 0z"/>
<path d="M2331 1090 c-96 -23 -152 -121 -126 -223 14 -56 45 -93 100 -118 35
-16 67 -19 255 -19 188 0 220 3 255 19 55 25 86 62 100 118 27 104 -29 200
-131 223 -47 11 -406 11 -453 0z"/>
<path d="M3611 1090 c-96 -23 -152 -121 -126 -223 14 -56 45 -93 100 -118 35
-16 67 -19 255 -19 188 0 220 3 255 19 55 25 86 62 100 118 27 104 -29 200
-131 223 -47 11 -406 11 -453 0z"/>
</g>
</svg>
