<svg width="100%" height="100%" viewBox="0 0 16 15" version="1.1" xmlns="http://www.w3.org/2000/svg" xmlns:xlink="http://www.w3.org/1999/xlink">
    <g id="Screens" stroke="none" stroke-width="1" fill="currentColor" fill-rule="evenodd">
        <g id="Automation-Copy-13" transform="translate(-469.000000, -1675.000000)" fill="currentColor" fill-rule="nonzero">
            <g id="Group-6-Copy-2" transform="translate(469.000000, 1675.000000)">
                <path d="M10.3333333,0 C12.3583774,0 14,1.60593514 14,3.58695652 C14,4.47929598 13.6669149,5.29553047 13.1157381,5.92316647 L14.9412461,6.88225886 C15.5930723,7.22260288 16,7.88598152 16,8.60869565 L16,15 L8.66666667,15 L8.666,14.999 L0,15 L0,12.5452174 C0,11.8043508 0.428166327,11.1264724 1.10337293,10.796701 L1.95570625,10.3760634 C1.56395194,9.84147039 1.33333333,9.18621209 1.33333333,8.47826087 C1.33333333,6.67733234 2.8257175,5.2173913 4.66666667,5.2173913 C5.59755213,5.2173913 6.43931401,5.59067947 7.04406845,6.19258683 L7.5543637,5.9270725 C7.001136,5.29891877 6.66666667,4.48114827 6.66666667,3.58695652 C6.66666667,1.60593514 8.30828925,0 10.3333333,0 Z M4.66666667,11.7391304 C4.06730704,11.7391304 3.50489407,11.5843818 3.01890024,11.3134991 L1.70112326,11.9626248 C1.47602835,12.0725629 1.33333333,12.2984795 1.33333333,12.5452174 L1.33333333,13.6956522 L8,13.6956522 L8,12.5452174 C8,12.2980155 7.8574453,12.0724682 7.62937293,11.9609077 L6.31443309,11.3134991 C5.82843926,11.5843818 5.26602629,11.7391304 4.66666667,11.7391304 Z M10.3333333,7.17391304 C9.75013953,7.17391304 9.19874617,7.04071899 8.7092061,6.80373038 L7.7725606,7.29198214 C7.91940162,7.65963041 8,8.05973788 8,8.47826087 C8,9.18621209 7.7693814,9.84147039 7.37762709,10.3760634 L8.22747573,10.7951562 C8.90535361,11.1267269 9.33333333,11.8038681 9.33333333,12.5452174 L9.333,13.695 L14.6666667,13.6956522 L14.6666667,8.60869565 C14.6666667,8.36765378 14.5310695,8.14660155 14.3121326,8.03228427 L11.9634389,6.80082958 C11.4724114,7.03963183 10.9189024,7.17391304 10.3333333,7.17391304 Z M4.66666667,6.52173913 C3.56209717,6.52173913 2.66666667,7.39770375 2.66666667,8.47826087 C2.66666667,9.55881799 3.56209717,10.4347826 4.66666667,10.4347826 C5.77123617,10.4347826 6.66666667,9.55881799 6.66666667,8.47826087 C6.66666667,7.39770375 5.77123617,6.52173913 4.66666667,6.52173913 Z M10.3333333,1.30434783 C9.04466892,1.30434783 8,2.32630655 8,3.58695652 C8,4.84760649 9.04466892,5.86956522 10.3333333,5.86956522 C11.6219977,5.86956522 12.6666667,4.84760649 12.6666667,3.58695652 C12.6666667,2.32630655 11.6219977,1.30434783 10.3333333,1.30434783 Z" id="Combined-Shape"></path>
            </g>
        </g>
    </g>
</svg>