<svg width="18px" height="14px" viewBox="0 0 18 14" version="1.1" xmlns="http://www.w3.org/2000/svg" xmlns:xlink="http://www.w3.org/1999/xlink">
    <title>card-outline</title>
    <g id="Screens" stroke="none" stroke-width="1" fill="none" fill-rule="evenodd">
        <g id="Automation" transform="translate(-1103.000000, -188.000000)" fill="#43516B" fill-rule="nonzero">
            <g id="Group-5" transform="translate(1080.000000, 0.000000)">
                <g id="card-outline" transform="translate(23.000000, 188.000000)">
                    <path d="M14.8461538,0.384615385 C16.3189132,0.384615385 17.5231484,1.53430393 17.6103307,2.98515234 L17.6153846,3.15384615 L17.6153846,11.1538462 C17.6153846,12.6266055 16.4656961,13.8308407 15.0148477,13.918023 L14.8461538,13.9230769 L3.15384615,13.9230769 C1.68108682,13.9230769 0.476851635,12.7733884 0.389669275,11.32254 L0.384615385,11.1538462 L0.384615385,3.15384615 C0.384615385,1.68108682 1.53430393,0.476851635 2.98515234,0.389669275 L3.15384615,0.384615385 L14.8461538,0.384615385 Z M16.3846154,5.87661538 L1.61461538,5.87661538 L1.61538462,11.1538462 C1.61538462,11.9563112 2.22977069,12.6152786 3.01381479,12.6860205 L3.15384615,12.6923077 L14.8461538,12.6923077 C15.6486189,12.6923077 16.3075863,12.0779216 16.3783282,11.2938775 L16.3846154,11.1538462 L16.3846154,5.87661538 Z M5.92307692,7.69230769 C6.51784512,7.69230769 7.00750755,8.14231892 7.07015246,8.7204296 L7.07692308,8.84615385 L7.07692308,9.61538462 C7.07692308,10.2101528 6.62691185,10.6998152 6.04880117,10.7624602 L5.92307692,10.7692308 L4.07692308,10.7692308 C3.48215488,10.7692308 2.99249245,10.3192195 2.92984754,9.74110887 L2.92307692,9.61538462 L2.92307692,8.84615385 C2.92307692,8.25138565 3.37308815,7.76172322 3.95119883,7.6990783 L4.07692308,7.69230769 L5.92307692,7.69230769 Z M14.8461538,1.61538462 L3.15384615,1.61538462 C2.35138113,1.61538462 1.69241367,2.22977069 1.6216718,3.01381479 L1.61538462,3.15384615 L1.61461538,3.56861538 L16.3846154,3.56861538 L16.3846154,3.15384615 C16.3846154,2.35138113 15.7702293,1.69241367 14.9861852,1.6216718 L14.8461538,1.61538462 Z" id="Shape"></path>
                </g>
            </g>
        </g>
    </g>
</svg>