<svg version="1.0" xmlns="http://www.w3.org/2000/svg"
 width="100%" height="100%" viewBox="0 0 512.000000 512.000000"
 preserveAspectRatio="xMidYMid meet">

<g transform="translate(0.000000,512.000000) scale(0.100000,-0.100000)"
fill="currentColor" stroke="none">
<path d="M2330 5064 c-92 -9 -298 -45 -395 -70 -839 -210 -1526 -847 -1801
-1670 -133 -397 -167 -833 -98 -1239 34 -199 124 -496 158 -525 29 -23 83 -24
115 -1 48 35 49 68 2 212 -250 776 -102 1593 406 2229 307 384 762 679 1243
804 231 60 325 71 600 71 189 0 270 -4 355 -18 777 -128 1415 -595 1766 -1294
151 -301 249 -696 249 -1006 0 -63 19 -110 49 -127 33 -17 78 -11 108 14 l28
24 -1 134 c-3 367 -113 776 -304 1128 -305 561 -823 1000 -1420 1203 -273 93
-479 128 -785 132 -126 1 -250 1 -275 -1z"/>
<path d="M2375 4590 c-389 -44 -798 -218 -1120 -475 -315 -251 -582 -624 -700
-976 -91 -275 -101 -431 -56 -892 34 -351 39 -537 16 -636 -9 -35 -42 -120
-75 -189 -33 -69 -60 -135 -60 -148 0 -12 12 -36 26 -53 20 -24 34 -31 63 -31
20 0 47 7 60 17 32 22 146 262 171 359 29 111 26 302 -7 632 -35 346 -37 573
-5 712 143 626 654 1174 1305 1399 342 118 678 129 1048 36 649 -165 1189
-705 1354 -1354 50 -197 57 -267 62 -626 2 -191 9 -351 14 -366 22 -56 104
-69 148 -24 l26 26 0 352 c-1 378 -8 457 -61 668 -182 729 -753 1305 -1494
1509 -195 54 -526 81 -715 60z"/>
<path d="M2315 4105 c-332 -53 -632 -200 -871 -427 -270 -257 -438 -597 -485
-982 -17 -140 -6 -455 27 -766 33 -318 37 -572 10 -670 -36 -133 -114 -237
-273 -368 -49 -40 -53 -46 -53 -87 0 -36 5 -47 32 -70 45 -38 83 -29 175 41
167 128 266 280 311 477 25 111 20 368 -12 677 -16 147 -30 348 -33 475 -5
195 -3 234 16 344 76 446 336 810 725 1017 234 125 447 171 733 161 167 -6
249 -20 399 -68 113 -36 128 -36 165 0 33 33 39 82 14 118 -28 40 -217 101
-400 129 -110 17 -371 16 -480 -1z"/>
<path d="M3379 3811 c-21 -22 -29 -39 -29 -66 0 -41 5 -46 143 -163 226 -189
394 -481 462 -799 24 -110 46 -560 46 -948 0 -508 -22 -833 -77 -1120 -41
-214 -42 -219 -6 -255 48 -47 117 -39 146 18 35 69 88 422 112 739 32 446 12
1356 -35 1601 -66 341 -259 680 -516 903 -142 124 -193 143 -246 90z"/>
<path d="M2385 3636 c-251 -42 -462 -152 -638 -333 -95 -97 -141 -163 -203
-288 -94 -191 -135 -398 -115 -581 36 -330 39 -948 7 -1222 -14 -119 -14 -136
-1 -162 31 -60 107 -70 149 -19 14 17 26 34 26 37 0 4 7 63 16 132 32 268 29
919 -7 1243 -25 227 55 478 213 673 113 140 311 266 498 316 123 33 338 32
460 0 288 -78 509 -263 632 -531 22 -47 50 -94 62 -103 33 -27 88 -23 121 9
23 24 26 34 23 73 -8 85 -106 258 -215 381 -167 189 -375 311 -626 365 -99 22
-303 27 -402 10z"/>
<path d="M2480 3170 c-151 -18 -269 -78 -386 -194 -94 -94 -152 -198 -180
-322 -18 -82 -18 -90 6 -479 16 -249 8 -781 -15 -970 -46 -392 -127 -671 -254
-880 -47 -77 -49 -110 -10 -152 50 -52 116 -35 167 44 164 256 266 651 303
1169 14 203 8 757 -12 1010 -12 158 -11 177 5 235 80 290 391 433 662 305 140
-66 245 -210 265 -363 4 -37 9 -223 9 -413 0 -311 2 -347 18 -367 43 -56 131
-43 158 23 23 56 15 770 -10 859 -91 327 -396 534 -726 495z"/>
<path d="M2500 2673 c-31 -26 -32 -29 -27 -87 3 -34 14 -108 23 -166 24 -135
27 -702 6 -845 -22 -144 -60 -320 -99 -457 -33 -114 -35 -129 -23 -158 16 -38
66 -66 104 -56 44 11 64 40 95 142 105 336 156 772 132 1127 -12 178 -29 310
-52 417 -22 102 -93 139 -159 83z"/>
<path d="M3553 2591 c-44 -28 -48 -60 -24 -208 46 -290 55 -415 55 -763 1
-209 -4 -373 -12 -435 -43 -348 -106 -597 -211 -833 -45 -101 -50 -136 -23
-168 40 -49 100 -54 140 -11 42 45 147 313 193 490 85 334 114 618 106 1045
-6 314 -33 594 -78 802 -18 83 -84 119 -146 81z"/>
<path d="M4508 1795 c-15 -9 -32 -24 -38 -35 -9 -18 -70 -636 -70 -713 0 -18
11 -39 29 -58 50 -49 124 -35 149 28 10 27 62 568 65 681 1 43 -3 57 -23 77
-32 31 -77 39 -112 20z"/>
<path d="M3067 1444 c-28 -28 -29 -31 -46 -229 -26 -297 -102 -612 -223 -929
-38 -99 -48 -137 -43 -162 12 -68 98 -97 149 -51 27 24 100 206 160 397 90
292 156 655 156 866 0 75 -2 82 -28 107 -38 36 -90 37 -125 1z"/>
<path d="M1372 793 c-23 -9 -232 -332 -232 -358 0 -41 18 -73 49 -90 41 -20
63 -19 96 7 32 25 222 307 231 343 7 27 -18 80 -45 95 -20 10 -76 12 -99 3z"/>
<path d="M2311 683 c-35 -34 -221 -493 -221 -547 0 -70 90 -112 147 -68 30 23
223 502 223 553 0 29 -7 43 -31 63 -40 34 -81 34 -118 -1z"/>
</g>
</svg>
