<svg xmlns="http://www.w3.org/2000/svg" width="100%" height="100%" viewBox="0 0 16 18">
    <path 
        fill-rule="evenodd" 
        clip-rule="evenodd" 
        d="M8.77091 3.59781C9.752 2.5149 10.5455 1.79781 10.5455 1.79781C10.5455 1.79781 16 6.3968 16 11.5813C16 15.1478 13.7571 17.6388 10.5455 17.6388H5.81818C2.39273 17.6388 0 14.8984 0 10.9755C0 5.53201 5.81818 0.343262 5.81818 0.343262C5.81818 0.343262 7.30182 1.72581 8.77091 3.59781ZM6.54561 14.238H10.182C11.4663 14.238 12.3638 13.2911 12.3638 11.934C12.3638 10.5777 10.5056 8.39294 10.4263 8.30058L10.182 8.01549L9.93761 8.30058C9.93761 8.30058 9.93516 8.30348 9.93345 8.30551C9.87312 8.37702 9.41492 8.92017 8.96015 9.61258C8.23215 8.15003 6.94706 6.68967 6.87142 6.60458L6.54561 6.23803L6.21979 6.60458C6.11361 6.72385 3.63652 9.53258 3.63652 11.2766C3.63652 13.0206 4.83288 14.238 6.54561 14.238Z" 
    />
</svg>