<svg viewBox="0 0 35 32" xmlns="http://www.w3.org/2000/svg" xmlns:xlink="http://www.w3.org/1999/xlink"><linearGradient id="a" x1="25.447%" x2="87.537%" y1="22.263%" y2="109.166%"><stop offset="0" stop-color="#6b32ff"/><stop offset=".25" stop-color="#3023ae"/><stop offset="1" stop-color="#c96dd8"/></linearGradient><path d="m144.138624 153.747561c-.581432-.713711-1.348272-1.162322-2.162278-1.346646-1.373482-.310368-2.533365-1.226023-3.243282-2.442016l-.182426-.312266c-.719675-1.232258-.879332-2.701154-.49686-4.07572.364039-1.307071.032256-2.767022-.99589-3.795168-.529388-.529388-1.173436-.874182-1.852452-1.034381-1.377547-.325006-2.559116-1.205151-3.273099-2.42765l-.185407-.317687c-.718049-1.229546-.88123-2.69519-.499571-4.066774.386808-1.389204-.011656-2.951075-1.197291-3.983558-1.454801-1.267225-3.668039-1.259906-5.115521.015993-1.699572 1.498984-1.760561 4.094694-.182968 5.672558.528575.528304 1.170997.872826 1.848657 1.033567 1.375379.32609 2.555321 1.205422 3.26822 2.426295l.191642.32853c.717506 1.228733.879603 2.693021.500113 4.064334-.361328 1.305716-.028733 2.762686.997516 3.789205.527491.527491 1.168828.871471 1.844862 1.032483 1.373211.327446 2.551255 1.206236 3.263341 2.425482l.203027.347504c.718319 1.230631.879332 2.697088.498486 4.070298-.362683 1.306258-.03063 2.764854.996432 3.791916 1.578677 1.578406 4.176284 1.516603 5.674727-.185679 1.241473-1.410346 1.286741-3.553921.100022-5.01062zm-13.612296.000542c-.579264-.711543-1.342851-1.159883-2.154146-1.345291-1.376735-.314434-2.540142-1.230631-3.251685-2.450148l-.164807-.282991c-.72862-1.248521-.882043-2.73341-.506077-4.129119.372442-1.381343-.029004-2.927763-1.205151-3.952657-1.455072-1.267495-3.668581-1.260448-5.115792.015993-1.699843 1.498714-1.760832 4.094423-.183239 5.672287.519087.519088 1.148227.860629 1.812605 1.024894 1.393812.344522 2.594897 1.22548 3.318367 2.465599l.165078.283533c.728891 1.249605.880416 2.735036.504992 4.132101-.348859 1.298668-.014095 2.742355 1.005106 3.761556 1.578406 1.578406 4.176013 1.516603 5.674455-.185679 1.241474-1.410346 1.287013-3.553379.100294-5.010078zm-12.747873 2.445812c0 2.147912-1.741316 3.889227-3.889227 3.889227-2.147912 0-3.889228-1.741315-3.889228-3.889227 0-2.148183 1.741316-3.889228 3.889228-3.889228 2.147911 0 3.889227 1.741045 3.889227 3.889228z" fill="url(#a)" fill-rule="evenodd" transform="translate(-110 -129)"/></svg>