<svg width="16px" height="15px" viewBox="0 0 16 15" version="1.1" xmlns="http://www.w3.org/2000/svg" xmlns:xlink="http://www.w3.org/1999/xlink">
    <title>Shape</title>
    <g id="Screens" stroke="none" stroke-width="1" fill="none" fill-rule="evenodd">
        <g id="Automation-Copy-13" transform="translate(-59.000000, -1675.000000)" fill="currentColor" fill-rule="nonzero">
            <g id="Group-6-Copy-3" transform="translate(59.000000, 1675.000000)">
                <path d="M8.36744308,10.2897267 L13.8947368,10.2897267 C14.1272778,10.2897267 14.3157895,10.0977739 14.3157895,9.86098808 L14.3157895,2.14369306 C14.3157895,1.90690726 14.1272778,1.71495445 13.8947368,1.71495445 L2.10526316,1.71495445 C1.87272221,1.71495445 1.68421053,1.90690726 1.68421053,2.14369306 L1.68421053,9.86098808 C1.68421053,10.0977739 1.87272221,10.2897267 2.10526316,10.2897267 L5.05263158,10.2897267 L5.05263158,12.8503148 L8.36744308,10.2897267 Z M2.10526316,12.0046811 C0.942558421,12.0046811 0,11.0449171 0,9.86098808 L0,2.14369306 C0,0.959764075 0.942558421,0 2.10526316,0 L13.8947368,0 C15.0574416,0 16,0.959764075 16,2.14369306 L16,9.86098808 C16,11.0449171 15.0574416,12.0046811 13.8947368,12.0046811 L8.93399232,12.0046811 L5.3950145,14.7384308 C4.83922447,15.1677612 4.04686589,15.0570208 3.62523208,14.4910853 C3.458612,14.2674405 3.36842105,13.9944309 3.36842105,13.7137138 L3.36842105,12.0046811 L2.10526316,12.0046811 Z" id="Shape"></path>
            </g>
        </g>
    </g>
</svg>