<svg width="100%" height="100%" viewBox="0 0 18 10" version="1.1" xmlns="http://www.w3.org/2000/svg" xmlns:xlink="http://www.w3.org/1999/xlink">
    <title>Combined Shape</title>
    <g id="Screens" stroke="none" stroke-width="1" fill="currentColor" fill-rule="evenodd">
        <g id="Automation-Copy-13" transform="translate(-468.000000, -244.000000)" fill="currentColor" fill-rule="nonzero">
            <path d="M471.052174,244 C472.324068,244 473.538882,244.506173 474.336844,245.395395 L476.927,247.913 L483.328,247.913 L481.533569,246.118605 C481.227941,245.812978 481.227941,245.317457 481.533569,245.011829 C481.839196,244.706202 482.334717,244.706202 482.640344,245.011829 L485.770779,248.142264 C485.796374,248.167859 485.820204,248.195218 485.842072,248.224144 L485.770779,248.142264 C485.805583,248.177068 485.836423,248.214334 485.8633,248.253501 C485.876688,248.273141 485.889233,248.293336 485.900858,248.314116 C485.909015,248.328589 485.916603,248.343255 485.923697,248.358098 C485.931253,248.373916 485.93858,248.390663 485.945326,248.407702 C485.950994,248.422128 485.955947,248.43583 485.960505,248.449634 C485.967771,248.471367 485.974296,248.494502 485.979759,248.518044 C485.98272,248.531153 485.985311,248.54377 485.987589,248.556434 C485.990907,248.574492 485.993591,248.593227 485.995599,248.612162 C485.997577,248.631046 485.99891,248.650062 485.999552,248.669096 C485.999854,248.678017 486,248.686817 486,248.695652 L485.999552,248.722208 C485.998895,248.741669 485.997517,248.76111 485.995416,248.780488 L486,248.695652 C486,248.742971 485.995801,248.789308 485.987754,248.834313 C485.985477,248.846724 485.982813,248.859749 485.979816,248.872712 C485.974087,248.897706 485.967269,248.921712 485.959365,248.94522 C485.955582,248.9564 485.951358,248.96809 485.946846,248.979695 C485.939048,248.999729 485.930515,249.019199 485.921231,249.038236 C485.914919,249.051288 485.908152,249.064254 485.900998,249.077061 C485.891073,249.094688 485.88054,249.111917 485.869377,249.12869 C485.841397,249.170913 485.808404,249.211415 485.770779,249.24904 L482.640344,252.379475 C482.334717,252.685103 481.839196,252.685103 481.533569,252.379475 C481.227941,252.073847 481.227941,251.578327 481.533569,251.272699 L483.327,249.478 L476.933,249.478 L474.422953,251.988171 C473.493991,252.917133 472.355979,253.391304 471.052174,253.391304 L468.782609,253.391304 C468.350386,253.391304 468,253.040918 468,252.608696 C468,252.176473 468.350386,251.826087 468.782609,251.826087 L471.052174,251.826087 C471.939673,251.826087 472.679922,251.51765 473.316177,250.881395 L475.494316,248.703256 L473.209596,246.480059 C472.681987,245.893827 471.893323,245.565217 471.052174,245.565217 L468.782609,245.565217 C468.350386,245.565217 468,245.214832 468,244.782609 C468,244.350386 468.350386,244 468.782609,244 L471.052174,244 Z" id="Combined-Shape"></path>
        </g>
    </g>
</svg>