<svg id="Layer_1" data-name="Layer 1" xmlns="http://www.w3.org/2000/svg" viewBox="0 0 512 512"><title>pause</title><path d="M203.67,35.41S196,32.84,208.92,33l10.37-1,7.61-2.56,7.54.76s2.17,6.75,6.5,81.92a550.33,550.33,0,0,1,4.33,70.66S243,476.89,238.46,499c0,0,6.52-184.44,4.45-196.08,0,0-5.34,176.39-9.45,189.94,0,0,6.09-171.09.81-186.32,0,0-5.6,157.49-10.86,176.54,0,0,2.1-30.21,1.45-38.29l-1.58,14.09.24-22.69,1.21-13.09s-3.62,35.48-5.47,38c0,0,2.22,16.18,1.38-47.88C220.63,413.17,233.37,261.66,203.67,35.41Z" fill="#231f20"/><path d="M26.2,35.41S18.51,32.84,31.45,33l10.37-1,7.61-2.56,7.56.76s2.15,6.75,6.46,81.92a548.18,548.18,0,0,1,4.34,70.66S65.55,476.89,61,499c0,0,6.51-184.44,4.46-196.08,0,0-5.35,176.39-9.48,189.94,0,0,6.11-171.09.82-186.32,0,0-5.62,157.49-10.86,176.54,0,0,2.09-30.21,1.46-38.29l-1.6,14.09L46,436.18l1.2-13.09s-3.62,35.48-5.44,38c0,0,2.19,16.18,1.36-47.88C43.17,413.17,55.91,261.66,26.2,35.41Z" fill="#231f20"/><path d="M65,44.27s-.91,8.2-.84-5.59l-.37-11-.89-8.1.25-8s2.37-2.31,28.65-6.9A67.63,67.63,0,0,1,116.53,0S219.36,2.37,227.08,7.22c0,0-64.46-6.93-68.54-4.73,0,0,61.65,5.69,66.38,10.07,0,0-59.8-6.5-65.12-.88,0,0,55,6,61.72,11.58,0,0-10.57-2.24-13.38-1.56l4.9,1.68-7.91-.22-4.58-1.3s12.4,3.84,13.26,5.79c0,0,5.65-2.32-16.73-1.46C197.09,26.19,144.12,12.64,65,44.27Z" fill="#231f20"/><path d="M65,509.58s-.91,8.2-.84-5.57l-.37-11.06-.89-8.1.25-8s2.37-2.31,28.65-6.88a67.42,67.42,0,0,1,24.69-4.61s102.82,2.39,110.55,7.24c0,0-64.46-6.93-68.54-4.75,0,0,61.65,5.69,66.38,10.08,0,0-59.8-6.51-65.12-.89,0,0,55,6,61.72,11.58,0,0-10.57-2.24-13.38-1.55l4.9,1.68-7.91-.24-4.58-1.3S213,491,213.82,493c0,0,5.65-2.34-16.73-1.46C197.09,491.52,144.12,478,65,509.58Z" fill="#231f20"/><path d="M446.48,35.41s-7.69-2.57,5.25-2.41l10.37-1,7.62-2.56,7.54.76s2.17,6.75,6.48,81.92a550.22,550.22,0,0,1,4.33,70.66S485.85,476.89,481.28,499c0,0,6.51-184.44,4.44-196.08,0,0-5.35,176.39-9.46,189.94,0,0,6.11-171.09.82-186.32,0,0-5.62,157.49-10.87,176.54,0,0,2.1-30.21,1.45-38.29l-1.56,14.09.22-22.69,1.21-13.09s-3.6,35.48-5.45,38c0,0,2.19,16.18,1.38-47.88C463.46,413.17,476.2,261.66,446.48,35.41Z" fill="#231f20"/><path d="M269,35.41s-7.73-2.57,5.24-2.41l10.37-1,7.61-2.56,7.56.76s2.17,6.75,6.5,81.92a550.22,550.22,0,0,1,4.33,70.66s-2.24,294.16-6.8,316.26c0,0,6.51-184.44,4.44-196.08,0,0-5.34,176.39-9.46,189.94,0,0,6.09-171.09.82-186.32,0,0-5.62,157.49-10.87,176.54,0,0,2.1-30.21,1.46-38.29l-1.58,14.09.2-22.69L290,423.08s-3.58,35.48-5.44,38c0,0,2.19,16.18,1.38-47.88C286,413.17,298.73,261.66,269,35.41Z" fill="#231f20"/><path d="M307.86,44.27s-.89,8.2-.86-5.59l-.35-11-.89-8.1.27-8s2.36-2.31,28.63-6.9A67.63,67.63,0,0,1,359.34,0S462.16,2.37,469.89,7.22c0,0-64.46-6.93-68.54-4.73,0,0,61.67,5.69,66.38,10.07,0,0-59.78-6.5-65.12-.88,0,0,55.05,6,61.72,11.58,0,0-10.57-2.24-13.4-1.56l4.93,1.68-7.94-.22-4.56-1.3s12.4,3.84,13.26,5.79c0,0,5.65-2.32-16.73-1.46C439.9,26.19,386.95,12.64,307.86,44.27Z" fill="#231f20"/><path d="M307.86,509.58s-.89,8.2-.86-5.57l-.35-11.06-.89-8.1.27-8s2.36-2.31,28.63-6.88a67.42,67.42,0,0,1,24.69-4.61s102.82,2.39,110.55,7.24c0,0-64.46-6.93-68.54-4.75,0,0,61.67,5.69,66.38,10.08,0,0-59.78-6.51-65.12-.89,0,0,55.05,6,61.72,11.58,0,0-10.57-2.24-13.4-1.55l4.93,1.68-7.94-.24-4.56-1.3s12.4,3.85,13.26,5.81c0,0,5.65-2.34-16.73-1.46C439.9,491.52,386.95,478,307.86,509.58Z" fill="#231f20"/></svg>