<?xml version="1.0" encoding="UTF-8"?>
<svg viewBox="0 0 18 18" version="1.1" xmlns="http://www.w3.org/2000/svg" xmlns:xlink="http://www.w3.org/1999/xlink">
    <title>Group 4</title>
    <g id="2.-Event" stroke="none" stroke-width="1" fill="none" fill-rule="evenodd">
        <g id="2" transform="translate(-1077.000000, -729.000000)" stroke="#8492A6">
            <g id="Group-3" transform="translate(137.000000, 429.000000)">
                <g id="Group-4" transform="translate(941.000000, 301.000000)">
                    <path d="M16,8 C16,7.19636364 15.3490909,6.54545455 14.5454545,6.54545455 L13.6276364,6.54545455 C13.4901818,6.01309091 13.2807273,5.51127273 13.008,5.04872727 L13.6567273,4.4 C14.2247273,3.832 14.2247273,2.91127273 13.6567273,2.34327273 C13.0887273,1.77527273 12.168,1.77527273 11.6,2.34327273 L10.9512727,2.992 C10.4887273,2.71927273 9.98690909,2.50981818 9.45454545,2.37236364 L9.45454545,1.45454545 C9.45454545,0.651636364 8.80363636,0 8,0 C7.19636364,0 6.54545455,0.650909091 6.54545455,1.45454545 L6.54545455,2.37236364 C6.01309091,2.50981818 5.51127273,2.71927273 5.04872727,2.992 L4.4,2.34327273 C3.832,1.77527273 2.91127273,1.77527273 2.34327273,2.34327273 C1.77527273,2.91127273 1.77527273,3.832 2.34327273,4.4 L2.992,5.04872727 C2.71927273,5.51127273 2.50981818,6.01309091 2.37236364,6.54545455 L1.45454545,6.54545455 C0.651636364,6.54545455 0,7.19636364 0,8 C0,8.80363636 0.650909091,9.45454545 1.45454545,9.45454545 L2.37236364,9.45454545 C2.50981818,9.98690909 2.71927273,10.4887273 2.992,10.9512727 L2.34327273,11.6 C1.77527273,12.168 1.77527273,13.0887273 2.34327273,13.6567273 C2.91127273,14.2247273 3.832,14.2247273 4.4,13.6567273 L5.04872727,13.008 C5.51054545,13.2807273 6.01309091,13.4901818 6.54545455,13.6276364 L6.54545455,14.5454545 C6.54545455,15.3483636 7.19636364,16 8,16 C8.80363636,16 9.45454545,15.3490909 9.45454545,14.5454545 L9.45454545,13.6276364 C9.98690909,13.4901818 10.4887273,13.2807273 10.9512727,13.008 L11.6,13.6567273 C12.168,14.2247273 13.0887273,14.2247273 13.6567273,13.6567273 C14.2247273,13.0887273 14.2247273,12.168 13.6567273,11.6 L13.008,10.9512727 C13.2807273,10.4894545 13.4901818,9.98690909 13.6276364,9.45454545 L14.5454545,9.45454545 C15.3483636,9.45454545 16,8.80363636 16,8 Z" id="Shape-Copy"></path>
                    <circle id="Oval-Copy" cx="8" cy="8" r="2.18181818"></circle>
                </g>
            </g>
        </g>
    </g>
</svg>