<svg width="16px" height="16px" viewBox="0 0 16 16" version="1.1" xmlns="http://www.w3.org/2000/svg" xmlns:xlink="http://www.w3.org/1999/xlink">
    <title>Combined Shape</title>
    <g id="Screens" stroke="none" stroke-width="1" fill="none" fill-rule="evenodd">
        <g id="Automation" transform="translate(-1104.000000, -354.000000)" fill="currentColor" fill-rule="nonzero">
            <g id="Group-5" transform="translate(1080.000000, 0.000000)">
                <g id="Group-6-Copy" transform="translate(24.000000, 354.000000)">
                    <path d="M8,0 C12.418278,0 16,3.581722 16,8 C16,12.418278 12.418278,16 8,16 C3.581722,16 0,12.418278 0,8 C0,3.581722 3.581722,0 8,0 Z M8,1.39130435 C4.35011818,1.39130435 1.39130435,4.35011818 1.39130435,8 C1.39130435,11.6498818 4.35011818,14.6086957 8,14.6086957 C11.6498818,14.6086957 14.6086957,11.6498818 14.6086957,8 C14.6086957,4.35011818 11.6498818,1.39130435 8,1.39130435 Z M8,2.7826087 C10.8814857,2.7826087 13.2173913,5.11851435 13.2173913,8 C13.2173913,10.8814857 10.8814857,13.2173913 8,13.2173913 C5.11851435,13.2173913 2.7826087,10.8814857 2.7826087,8 C2.7826087,5.11851435 5.11851435,2.7826087 8,2.7826087 Z M8,4.17391304 C5.88691052,4.17391304 4.17391304,5.88691052 4.17391304,8 C4.17391304,10.1130895 5.88691052,11.826087 8,11.826087 C10.1130895,11.826087 11.826087,10.1130895 11.826087,8 C11.826087,5.88691052 10.1130895,4.17391304 8,4.17391304 Z M8,5.56521739 C9.3446933,5.56521739 10.4347826,6.6553067 10.4347826,8 C10.4347826,9.3446933 9.3446933,10.4347826 8,10.4347826 C6.6553067,10.4347826 5.56521739,9.3446933 5.56521739,8 C5.56521739,6.6553067 6.6553067,5.56521739 8,5.56521739 Z M8,9.04347826 C8.57629713,9.04347826 9.04347826,8.57629713 9.04347826,8 C9.04347826,7.42370287 8.57629713,6.95652174 8,6.95652174 C7.42370287,6.95652174 6.95652174,7.42370287 6.95652174,8 C6.95652174,8.57629713 7.42370287,9.04347826 8,9.04347826 Z" id="Combined-Shape"></path>
                </g>
            </g>
        </g>
    </g>
</svg>