<?xml version="1.0" encoding="UTF-8"?>
<svg width="16px" height="16px" viewBox="0 0 16 16" version="1.1" xmlns="http://www.w3.org/2000/svg" xmlns:xlink="http://www.w3.org/1999/xlink">
    <title>Path</title>
    <g id="Screens" stroke="none" stroke-width="1" fill="currentColor" fill-rule="evenodd">
        <g id="If-Else--Copy" transform="translate(-995.000000, -977.000000)" fill="#8492A6" fill-rule="nonzero">
            <g id="Group-3" transform="translate(950.000000, 970.000000)">
                <g id="Group-11-Copy-3" transform="translate(38.000000, 0.000000)">
                    <g id="e-add" transform="translate(7.000000, 7.000000)">
                        <path d="M15,7 L9,7 L9,1 C9,0.4 8.6,0 8,0 C7.4,0 7,0.4 7,1 L7,7 L1,7 C0.4,7 0,7.4 0,8 C0,8.6 0.4,9 1,9 L7,9 L7,15 C7,15.6 7.4,16 8,16 C8.6,16 9,15.6 9,15 L9,9 L15,9 C15.6,9 16,8.6 16,8 C16,7.4 15.6,7 15,7 Z" id="Path"></path>
                    </g>
                </g>
            </g>
        </g>
    </g>
</svg>