<svg height="35" viewBox="0 0 35 35" width="35" xmlns="http://www.w3.org/2000/svg"><g fill="none"><path d="m33.5416667 35c.8054156 0 1.4583333-.6529177 1.4583333-1.4583333v-32.08333337c0-.80541562-.6529177-1.45833333-1.4583333-1.45833333h-32.08333337c-.80541562 0-1.45833333.65291771-1.45833333 1.45833333v32.08333337c0 .8054156.65291771 1.4583333 1.45833333 1.4583333z" fill="#39579a"/><path d="m18.868222 35v-13.9876339h-4.868222v-5.1533389h4.868222v-3.80951c0-4.56421649 2.8276695-7.0495172 6.957687-7.0495172 1.978318 0 3.6785818.14520636 4.174091.21010899v4.76987152l-2.8643874.00128097c-2.2461342 0-2.6810442 1.05223082-2.6810442 2.59630362v3.2814621h5.2272841l-.7467548 5.1533389h-4.4805293v13.9876339z" fill="#fff"/></g></svg>